<?xml version="1.0" encoding="utf-8"?>
<!-- Generator: Adobe Illustrator 16.0.0, SVG Export Plug-In . SVG Version: 6.00 Build 0)  -->
<!DOCTYPE svg PUBLIC "-//W3C//DTD SVG 1.1//EN" "http://www.w3.org/Graphics/SVG/1.1/DTD/svg11.dtd">
<svg version="1.1" id="Layer_1" xmlns="http://www.w3.org/2000/svg" xmlns:xlink="http://www.w3.org/1999/xlink" x="0px" y="0px"
	 width="716.964px" height="526.473px" viewBox="0 0 716.964 526.473" enable-background="new 0 0 716.964 526.473"
	 xml:space="preserve">
<path fill="none" stroke="#414042" stroke-miterlimit="10" d="M9.12,515.393V35.825c0-13.661,11.074-24.736,24.735-24.736H683.81
	c13.662,0,24.736,11.075,24.736,24.736v479.565"/>
<line fill="none" stroke="#000000" stroke-miterlimit="10" x1="8.547" y1="514.477" x2="707.974" y2="514.477"/>
<rect x="34.541" y="61.928" fill="none" stroke="#414042" stroke-miterlimit="10" width="648.585" height="425.979"/>
<rect x="34.541" y="61.929" fill="#00AEEF" width="648.585" height="118.174"/>
<line fill="none" stroke="#F1F2F2" stroke-width="5" stroke-miterlimit="10" x1="340.625" y1="102.694" x2="612.703" y2="102.694"/>
<line fill="none" stroke="#F1F2F2" stroke-width="5" stroke-miterlimit="10" x1="340.625" y1="143.46" x2="542.623" y2="143.46"/>
<line fill="none" stroke="#808285" stroke-width="2" stroke-miterlimit="10" x1="71.299" y1="255.144" x2="612.703" y2="255.144"/>
<line fill="none" stroke="#808285" stroke-width="2" stroke-miterlimit="10" x1="70.613" y1="309.963" x2="550.869" y2="309.963"/>
<line fill="none" stroke="#808285" stroke-width="2" stroke-miterlimit="10" x1="70.613" y1="364.696" x2="431.32" y2="364.696"/>
<g>
	<path display="none" fill="#F1F2F2" d="M68.529,107.727h9.816l3.534,18.723l5.172-18.723h9.781l5.185,18.698l3.538-18.698h9.765
		l-7.373,33.445H97.813l-5.866-21.057l-5.843,21.057H75.97L68.529,107.727z"/>
	<path display="none" fill="#F1F2F2" d="M132.613,107.727h10.355v18.17c0,3.815-0.339,6.718-1.015,8.709
		c-0.677,1.991-2.038,3.678-4.083,5.061c-2.046,1.383-4.666,2.075-7.859,2.075c-3.376,0-5.993-0.456-7.848-1.369
		s-3.289-2.247-4.3-4.004c-1.012-1.757-1.608-3.928-1.791-6.513l9.878-1.346c0.015,1.476,0.145,2.57,0.388,3.285
		c0.243,0.715,0.654,1.293,1.232,1.734c0.396,0.289,0.958,0.434,1.688,0.434c1.156,0,2.003-0.429,2.543-1.288
		c0.54-0.858,0.812-2.306,0.812-4.342V107.727z"/>
</g>
<rect x="228.407" y="28.244" fill="none" stroke="#808285" stroke-miterlimit="10" width="453.803" height="19.275"/>
<g enable-background="new    ">
	<path fill="#FFFFFF" d="M120.896,143.46H104.25l-4.99-22.705c-0.238-0.95-0.612-2.84-1.123-5.668
		c-0.511-2.827-0.885-5.191-1.123-7.094c-0.19,1.546-0.499,3.464-0.927,5.757c-0.428,2.294-0.85,4.402-1.265,6.327
		c-0.417,1.925-2.145,9.72-5.187,23.383H72.99L60.087,91.348h13.581l5.667,26.128c1.283,5.773,2.162,10.372,2.638,13.794
		c0.309-2.424,0.861-5.715,1.658-9.874c0.795-4.157,1.538-7.604,2.228-10.336l4.598-19.712h13.046l4.456,19.712
		c0.76,3.16,1.533,6.808,2.317,10.942s1.307,7.225,1.568,9.268c0.309-2.638,1.152-7.212,2.531-13.724l5.774-26.198h13.581
		L120.896,143.46z"/>
	<path fill="#FFFFFF" d="M136.366,159.821c-2.566,0-5.002-0.25-7.307-0.749V148.13c0.761,0.143,1.568,0.303,2.424,0.48
		c0.855,0.179,1.782,0.268,2.78,0.268c2.329,0,3.992-0.701,4.99-2.104s1.497-3.801,1.497-7.199V91.348h14.151v47.015
		c0,7.059-1.545,12.398-4.634,16.022C147.178,158.009,142.544,159.821,136.366,159.821z"/>
</g>
</svg>
