<svg xmlns="http://www.w3.org/2000/svg" viewBox="245.2 -42.9 736.5 516"><style type="text/css">.st0{fill:#F9FDCE;}
	.st1{font-family:'Helvetica';font-weight:bold;font-size:520%;}.st2{fill:#24A8BF;}.st3{fill:#919191;}.st4{fill:#FAF9F9;}.st5{fill:#FF704D;}.st6{fill:#FFD359;}.st7{fill:#CFAB48;}.st8{fill:#032E4F;}.st9{font-size:73;}.st10{fill:#A8A8A8;}</style><rect x="245.2" y="-42.9" class="st0" width="736.5" height="516"/><path class="st5" d="M809.6 376.3c0 3.6-2.9 6.5-6.5 6.5H768.2c-3.6 0-6.5-2.9-6.5-6.5v-77.6c0-3.6 2.9-6.5 6.5-6.5H803.1c3.6 0 6.5 2.9 6.5 6.5V376.3z"/><circle class="st3" cx="785.7" cy="374.6" r="3.9"/><circle class="st5" cx="785.7" cy="374.6" r="1.6"/><circle class="st8" cx="785.7" cy="295.9" r="1.1"/><rect x="767.4" y="303.4" class="st8" width="36.5" height="64.2"/><path class="st2" d="M931.1 378.8c0 2.1-1.7 3.8-3.7 3.8l-98.9 0.2c-2.1 0-3.7-1.7-3.8-3.7l-0.3-145.3c0-2.1 1.7-3.7 3.7-3.7l98.9-0.2c2.1 0 3.8 1.7 3.8 3.7L931.1 378.8z"/><rect x="831.7" y="239.9" class="st4" width="92" height="121.3"/><circle class="st10" cx="877.8" cy="371" r="7.1"/><circle class="st6" cx="877.8" cy="371" r="2.8"/><path class="st8" d="M879.5 235.3c0 1.1-0.9 2-2 2s-2-0.9-2-2c0-1.1 0.9-2 2-2C878.7 233.3 879.5 234.2 879.5 235.3z"/><path class="st2" d="M454.9 354.8c0 2.6-2.1 4.7-4.7 4.7H281.5c-2.6 0-4.7-2.1-4.7-4.7v-97.2c0-2.6 2.1-4.7 4.7-4.7h168.6c2.6 0 4.7 2.1 4.7 4.7v97.2H454.9z"/><rect x="284" y="260.5" class="st4" width="164.1" height="91.4"/><circle class="st2" cx="365.8" cy="256.8" r="2"/><path class="st6" d="M469.4 378.5c0.3 0.5-3 0.8-6 0.8H268.3c-3 0-6.3-0.4-6-0.9l13.9-18c0.3-0.5 2.7-0.9 5.3-0.9h168.6c2.6 0 5 0.4 5.3 0.9L469.4 378.5z"/><path class="st7" d="M469.8 380.7c0 1.2-2.1 2.1-4.8 2.1H266.7c-2.6 0-4.8-0.9-4.8-2.1v-1.4c0-1.1 2.1-2.1 4.8-2.1H465c2.6 0 4.8 0.9 4.8 2.1V380.7z"/><polygon class="st7" points="282 361.9 280.3 364.1 452.1 364.1 450.4 361.9 "/><polygon class="st7" points="279.7 365.4 278.2 367.6 454.7 367.6 453 365.4 "/><polygon class="st7" points="277.8 368.8 276.3 371 456.9 371 455.5 368.8 "/><polygon class="st5" points="368 375.7 395.4 375.7 394.3 372 368 372 "/><polygon class="st8" points="364.7 372 338.1 372 337.2 375.7 364.7 375.7 "/><path class="st2" d="M631.9 379.1h-18.5H595c0 0 3.4 20.2-11.7 22.3h30.2 30.2C628.6 399.3 631.9 379.1 631.9 379.1z"/><rect x="581.5" y="400.1" class="st5" width="64" height="3.9"/><path class="st8" d="M712.9 375.8c0 2.4-2 4.4-4.4 4.4h-190c-2.4 0-4.4-2-4.4-4.4V257.3c0-2.4 2-4.4 4.4-4.4h190c2.4 0 4.4 2 4.4 4.4V375.8z"/><rect x="518.5" y="257.6" class="st4" width="189.4" height="102.9"/><path class="st6" d="M514.1 365.7v10.1c0 2.4 2 4.4 4.4 4.4h190c2.4 0 4.4-2 4.4-4.4v-10.1H514.1z"/><text transform="matrix(1 0 0 1 256.2813 110)" class="st2 st1 st9">  Jekyll Collections</text></svg>