<svg xmlns="http://www.w3.org/2000/svg" viewBox="0 0 800 500"><style>.a{fill:#F9F9FA;}.b{fill:#2D2D2D;}</style><rect width="800" height="500" style="fill:#EE2466;stroke-width:0.5;stroke:#58595B"/><path d="M349.4 279.3c0-3.1-3.1-5.7-7-5.7 -3.9 0-7 2.5-7 5.7v102.4c0 3.1 3.1 5.7 7 5.7 3.9 0 7-2.5 7-5.7v-44.7c0 0 0 0 0 0L349.4 279.3z" class="a"/><path d="M442.6 304.6c-1.2-1.3-1.2-3.1 0-4.3 6.6-6.4 13.5-11.6 19.9-15.8 5.7-3.7-1.7-6.4-3.4-6.9 -33.8-11.5-67.6 12.5-101.3 5.2v56.6c33.8 7.3 67.6-16.8 101.5-5.2 1.7 0.6 3.2 0.4 3.9-0.5 0.7-0.9 0.5-2.4-0.5-3.9C456 320.2 449.3 311.9 442.6 304.6z" class="a"/><rect x="297.7" y="237.3" width="204.6" height="36.8" class="b"/><rect x="297.7" y="383" width="204.6" height="36.8" class="b"/><path d="M332.3 157.9h135.3c8.2 0 14.9-5.6 14.9-12.5 0-6.9-6.7-12.5-14.9-12.5H332.3c-8.2 0-14.9 5.6-14.9 12.5C317.4 152.3 324.1 157.9 332.3 157.9z" class="b"/><path d="M407.8 223.7l-10.8 7.2h21.8c0.3-1.7 0-3.5-1-5.1C415.6 222.4 411.1 221.5 407.8 223.7zM417.8 173c-2.2-3.3-6.7-4.2-10-2l-23.5 15.6c-3.3 2.2-4.2 6.6-2 10 2.2 3.3 6.6 4.2 10 2l23.6-15.6C419 180.8 420 176.3 417.8 173zM392.2 171.7l11.2-7.4h-22.2c-0.3 1.8 0 3.7 1.1 5.4C384.4 173 388.8 173.9 392.2 171.7zM417.8 200.3c-2.2-3.3-6.7-4.2-10-2l-23.5 15.6c-3.3 2.2-4.2 6.6-2 10 2.2 3.3 6.6 4.2 10 2l23.6-15.6C419 208.1 420 203.6 417.8 200.3z" class="b"/><text transform="matrix(1 0 0 1 56.9702 76)" style="fill:#2D2D2D;font-family:'Helvetica';font-size:60;font-weight:bold">  Optimize Font Awesome</text></svg>