<svg xmlns="http://www.w3.org/2000/svg" width="717" height="526" viewBox="0 0 717 526.5"><style>.a{fill:none;stroke:#414042;}.b{fill:#00AEEF;}.c{fill:none;stroke-width:5;stroke:#F1F2F2;}.d{stroke-width:2;stroke:#000;}</style><metadata><sfw xmlns="http://ns.adobe.com/SaveForWeb/1.0/"><sliceSourceBounds width="700.5" height="504.8" y="-1.7" x="49.6" bottomLeftOrigin="true"/></sfw></metadata><path d="M9.1 515.4V35.8c0-13.7 11.1-24.7 24.7-24.7H683.8c13.7 0 24.7 11.1 24.7 24.7V515.4" class="a"/><line x1="8.5" y1="514.5" x2="708" y2="514.5" style="fill:none;stroke:#000"/><rect x="34.5" y="61.9" width="648.6" height="426" class="a"/><rect x="34.5" y="61.9" width="648.6" height="118.2" class="b"/><line x1="340.6" y1="102.7" x2="612.7" y2="102.7" class="c"/><line x1="105" y1="353.7" x2="517" y2="353.7" class="d"/><line x1="105" y1="392.2" x2="441.6" y2="392.2" class="d"/><line x1="105" y1="430.7" x2="358.3" y2="430.7" class="d"/><line x1="340.6" y1="143.5" x2="542.6" y2="143.5" class="c"/><rect x="228.4" y="28.2" width="453.8" height="19.3" style="fill:none;stroke:#808285"/><text transform="matrix(1 0 0 1 74.9819 143.46)" font-family="'Helvetica'" font-weight="bold" font-size="72" fill="#FFF">  WJ</text><text transform="matrix(1 0 0 1 104.9819 249.7363)" font-family="'Helvetica'" font-weight="bold" font-size="29" class="b">  New tech to organize your daily tasks.</text><text xmlns="http://www.w3.org/2000/svg" transform="matrix(1 0 0 1 404.9819 286.918)"><tspan font-family="'Helvetica'" font-size="16">  Categories : </tspan><tspan x="90.1" font-family="'Helvetica'" font-size="16" class="b">  Personal</tspan><tspan x="150.3" font-family="'Helvetica'" font-size="16">  , </tspan><tspan x="159" font-family="'Helvetica'" font-size="16" class="b">  Tech</tspan></text></svg>