<svg xmlns="http://www.w3.org/2000/svg" width="717" height="526" viewBox="0 0 717 526.5" class="undefined"><style>.a{fill:none;stroke:#414042;}.b{fill:none;stroke:#000;}.c{fill:#00AEEF;}.d{fill:none;stroke-width:5;stroke:#F1F2F2;}.e{fill:none;stroke:#808285;}.f{fill:#FFF;}</style><metadata class="undefined"><sfw xmlns="http://ns.adobe.com/SaveForWeb/1.0/" class="undefined"><sliceSourceBounds width="700.5" height="504.8" y="-1.7" x="49.6" bottomLeftOrigin="true" class="undefined"/></sfw></metadata><path d="M9.1 515.4V35.8c0-13.7 11.1-24.7 24.7-24.7H683.8c13.7 0 24.7 11.1 24.7 24.7V515.4" class="a"/><line x1="8.5" y1="514.5" x2="708" y2="514.5" class="b"/><rect x="34.5" y="61.9" width="648.6" height="426" class="a"/><rect x="34.5" y="61.9" width="648.6" height="118.2" class="c"/><line x1="340.6" y1="102.7" x2="612.7" y2="102.7" class="d"/><line x1="340.6" y1="143.5" x2="542.6" y2="143.5" class="d"/><rect x="228.4" y="28.2" width="453.8" height="19.3" class="e"/><text transform="matrix(1 0 0 1 50.9819 243.7363)" class="undefined"><tspan font-family="'Helvetica'" font-size="12" letter-spacing="33" class="c"/><tspan x="36" font-family="'Helvetica'" font-weight="bold" font-size="36" class="c">  Categories</tspan></text><text transform="matrix(1 0 0 1 136.9819 307.7363)" class="undefined"><tspan font-family="'Helvetica'" font-size="21" class="undefined">  Personal</tspan><tspan y="16.8" font-family="'Helvetica'" font-size="14" font-weight="bold" letter-spacing="33" class="undefined"/><tspan x="36" y="16.8" font-family="'Helvetica'" font-size="14" class="c">  My ways to live life.</tspan><tspan y="33.6" font-family="'Helvetica'" font-size="14" letter-spacing="33" class="c"/><tspan x="36" y="33.6" font-family="'Helvetica'" font-size="14" class="c">  New tech to organize your daily tasks.</tspan></text><text transform="matrix(1 0 0 1 136.9819 383.7363)" class="undefined"><tspan font-family="'Helvetica'" font-size="21" class="undefined">  Tech</tspan><tspan y="16.8" font-family="'Helvetica'" font-size="14" font-weight="bold" letter-spacing="33" class="undefined"/><tspan x="36" y="16.8" font-family="'Helvetica'" font-size="14" class="c">  Top innovations in technology.</tspan><tspan y="33.6" font-family="'Helvetica'" font-size="14" letter-spacing="33" class="c"/><tspan x="36" y="33.6" font-family="'Helvetica'" font-size="14" class="c">  New tech to organize your daily tasks.</tspan></text><text transform="matrix(1 0 0 1 74.9819 143.46)" font-family="'Helvetica'" font-size="72" font-weight="bold" class="f">  WJ</text></svg>