<svg xmlns="http://www.w3.org/2000/svg" width="717" height="526" viewBox="0 0 717 526.5"><style>.a{fill:none;stroke:#414042;}.b{fill:none;stroke-width:5;stroke:#F1F2F2;}.c{fill:none;stroke-width:2;stroke:#808285;}</style><path d="M9.1 515.4V35.8c0-13.7 11.1-24.7 24.7-24.7h650c13.7 0 24.7 11.1 24.7 24.7v479.6" class="a"/><line x1="8.5" y1="514.5" x2="708" y2="514.5" style="fill:none;stroke:#000"/><rect x="34.5" y="61.9" width="648.6" height="426" class="a"/><rect x="34.5" y="61.9" width="648.6" height="118.2" fill="#00AEEF"/><line x1="340.6" y1="102.7" x2="612.7" y2="102.7" class="b"/><line x1="340.6" y1="143.5" x2="542.6" y2="143.5" class="b"/><line x1="71.3" y1="255.1" x2="612.7" y2="255.1" class="c"/><line x1="70.6" y1="310" x2="550.9" y2="310" class="c"/><line x1="70.6" y1="364.7" x2="431.3" y2="364.7" class="c"/><text transform="matrix(1 0 0 1 68.5518 141.1719)" font-family="'Arial-Black'" font-size="46.7224" fill="#F1F2F2">  WJ</text><rect x="228.4" y="28.2" width="453.8" height="19.3" style="fill:none;stroke:#808285"/></svg>