<svg xmlns="http://www.w3.org/2000/svg" viewBox="277.5 63.6 600 375"><style>.a{fill:#FF704D;}.b{fill:#032E4F;}.c{fill:#24A8BF;}.d{fill:#FAF9F9;}.e{fill:#FFD359;}.f{fill:#CFAB48;}</style><rect x="277.5" y="63.6" width="600" height="375" fill="#F9FDCE"/><path d="M720.1 368.2c0 2.6-2.1 4.7-4.7 4.7h-25.4c-2.6 0-4.7-2.1-4.7-4.7v-56.4c0-2.6 2.1-4.7 4.7-4.7h25.4c2.6 0 4.7 2.1 4.7 4.7V368.2z" class="a"/><circle cx="702.7" cy="367" r="2.8" fill="#919191"/><circle cx="702.7" cy="367" r="1.2" class="a"/><circle cx="702.7" cy="309.8" r="0.8" class="b"/><rect x="689.4" y="315.3" width="26.5" height="46.7" class="b"/><path d="M808.4 370.1c0 1.5-1.2 2.8-2.7 2.8l-71.9 0.1c-1.5 0-2.7-1.2-2.8-2.7l-0.2-105.6c0-1.5 1.2-2.7 2.7-2.7l71.9-0.1c1.5 0 2.8 1.2 2.8 2.7L808.4 370.1z" class="c"/><rect x="736.1" y="269.1" width="66.9" height="88.2" class="d"/><circle cx="769.6" cy="364.4" r="5.2" fill="#A8A8A8"/><circle cx="769.6" cy="364.4" r="2" class="e"/><path d="M770.9 265.8c0 0.8-0.7 1.5-1.5 1.5 -0.8 0-1.5-0.7-1.5-1.5 0-0.8 0.7-1.5 1.5-1.5C770.3 264.3 770.9 265 770.9 265.8z" class="b"/><path d="M462.3 352.6c0 1.9-1.5 3.4-3.4 3.4H336.3c-1.9 0-3.4-1.5-3.4-3.4v-70.6c0-1.9 1.5-3.4 3.4-3.4h122.5c1.9 0 3.4 1.5 3.4 3.4v70.6H462.3z" class="c"/><rect x="338.1" y="284.1" width="119.3" height="66.4" class="d"/><circle cx="397.5" cy="281.4" r="1.5" class="c"/><path d="M472.8 369.8c0.2 0.4-2.2 0.6-4.4 0.6H326.7c-2.2 0-4.6-0.3-4.4-0.7l10.1-13.1c0.2-0.4 2-0.7 3.9-0.7h122.5c1.9 0 3.6 0.3 3.9 0.7L472.8 369.8z" class="e"/><path d="M473.1 371.4c0 0.9-1.5 1.5-3.5 1.5H325.5c-1.9 0-3.5-0.7-3.5-1.5v-1c0-0.8 1.5-1.5 3.5-1.5h144.1c1.9 0 3.5 0.7 3.5 1.5V371.4z" class="f"/><polygon points="336.6 357.8 335.4 359.4 460.3 359.4 459 357.8 " class="f"/><polygon points="335 360.3 333.9 361.9 462.1 361.9 460.9 360.3 " class="f"/><polygon points="333.6 362.8 332.5 364.4 463.7 364.4 462.7 362.8 " class="f"/><polygon points="399.1 367.8 419 367.8 418.3 365.1 399.1 365.1 " class="a"/><polygon points="396.7 365.1 377.4 365.1 376.8 367.8 396.7 367.8 " class="b"/><path d="M590.9 370.3h-13.4 -13.4c0 0 2.5 14.7-8.5 16.2h21.9H599.5C588.5 385 590.9 370.3 590.9 370.3z" class="c"/><rect x="554.3" y="385.5" width="46.5" height="2.8" class="a"/><path d="M649.8 367.9c0 1.7-1.5 3.2-3.2 3.2H508.5c-1.7 0-3.2-1.5-3.2-3.2v-86.1c0-1.7 1.5-3.2 3.2-3.2h138.1c1.7 0 3.2 1.5 3.2 3.2V367.9z" class="b"/><rect x="508.5" y="282" width="137.6" height="74.8" class="d"/><path d="M505.3 360.5v7.3c0 1.7 1.5 3.2 3.2 3.2h138.1c1.7 0 3.2-1.5 3.2-3.2v-7.3H505.3z" class="e"/><text transform="matrix(1 0 0 1 300.9443 175.291)" style="fill:#24A8BF;font-family:'Helvetica';font-size:387%;font-weight:bold">  Jekyll Collections</text></svg>