<svg xmlns="http://www.w3.org/2000/svg" viewBox="0 0 717 526.5" version="1"><style>.a{fill:none;stroke-miterlimit:10;stroke:#414042;}.b{fill:none;stroke-miterlimit:10;stroke-width:5;stroke:#F1F2F2;}.c{fill:none;stroke-miterlimit:10;stroke-width:2;stroke:#808285;}.d{display:none;fill:#F1F2F2;}.e{fill:#FFF;}</style><path d="M9.1 515.4V35.8c0-13.7 11.1-24.7 24.7-24.7H683.8c13.7 0 24.7 11.1 24.7 24.7v479.6" class="a"/><line x1="8.5" y1="514.5" x2="708" y2="514.5" style="fill:none;stroke-miterlimit:10;stroke:#000"/><rect x="34.5" y="61.9" width="648.6" height="426" class="a"/><rect x="34.5" y="61.9" width="648.6" height="118.2" fill="#00AEEF"/><line x1="340.6" y1="102.7" x2="612.7" y2="102.7" class="b"/><line x1="340.6" y1="143.5" x2="542.6" y2="143.5" class="b"/><line x1="71.3" y1="255.1" x2="612.7" y2="255.1" class="c"/><line x1="70.6" y1="310" x2="550.9" y2="310" class="c"/><line x1="70.6" y1="364.7" x2="431.3" y2="364.7" class="c"/><path d="M68.5 107.7h9.8l3.5 18.7 5.2-18.7h9.8l5.2 18.7 3.5-18.7h9.8l-7.4 33.4H97.8l-5.9-21.1 -5.8 21.1H76L68.5 107.7z" class="d"/><path d="M132.6 107.7h10.4v18.2c0 3.8-0.3 6.7-1 8.7 -0.7 2-2 3.7-4.1 5.1 -2 1.4-4.7 2.1-7.9 2.1 -3.4 0-6-0.5-7.8-1.4s-3.3-2.2-4.3-4c-1-1.8-1.6-3.9-1.8-6.5l9.9-1.3c0 1.5 0.1 2.6 0.4 3.3 0.2 0.7 0.7 1.3 1.2 1.7 0.4 0.3 1 0.4 1.7 0.4 1.2 0 2-0.4 2.5-1.3 0.5-0.9 0.8-2.3 0.8-4.3V107.7z" class="d"/><rect x="228.4" y="28.2" width="453.8" height="19.3" style="fill:none;stroke-miterlimit:10;stroke:#808285"/><g enable-background="new    "><path d="M120.9 143.5H104.3l-5-22.7c-0.2-0.9-0.6-2.8-1.1-5.7 -0.5-2.8-0.9-5.2-1.1-7.1 -0.2 1.5-0.5 3.5-0.9 5.8 -0.4 2.3-0.8 4.4-1.3 6.3 -0.4 1.9-2.1 9.7-5.2 23.4H73L60.1 91.3h13.6l5.7 26.1c1.3 5.8 2.2 10.4 2.6 13.8 0.3-2.4 0.9-5.7 1.7-9.9 0.8-4.2 1.5-7.6 2.2-10.3l4.6-19.7h13l4.5 19.7c0.8 3.2 1.5 6.8 2.3 10.9s1.3 7.2 1.6 9.3c0.3-2.6 1.2-7.2 2.5-13.7l5.8-26.2h13.6L120.9 143.5z" class="e"/><path d="M136.4 159.8c-2.6 0-5-0.2-7.3-0.7V148.1c0.8 0.1 1.6 0.3 2.4 0.5 0.9 0.2 1.8 0.3 2.8 0.3 2.3 0 4-0.7 5-2.1s1.5-3.8 1.5-7.2V91.3h14.2v47c0 7.1-1.5 12.4-4.6 16C147.2 158 142.5 159.8 136.4 159.8z" class="e"/></g></svg>